<mxfile host="app.diagrams.net" agent="Mozilla/5.0 (Windows NT 10.0; Win64; x64) AppleWebKit/537.36 (KHTML, like Gecko) Chrome/130.0.0.0 Safari/537.36" version="24.7.17">
  <diagram id="prtHgNgQTEPvFCAcTncT" name="Page-1">
    <mxGraphModel dx="1195" dy="588" grid="1" gridSize="10" guides="1" tooltips="1" connect="1" arrows="1" fold="1" page="1" pageScale="1" pageWidth="827" pageHeight="1169" math="0" shadow="0">
      <root>
        <mxCell id="0" />
        <mxCell id="1" parent="0" />
        <mxCell id="dNxyNK7c78bLwvsdeMH5-19" value="Subscription:&amp;nbsp;&lt;strong style=&quot;color: rgb(23, 43, 77); font-family: -apple-system, BlinkMacSystemFont, &amp;quot;Segoe UI&amp;quot;, Roboto, Oxygen, Ubuntu, &amp;quot;Fira Sans&amp;quot;, &amp;quot;Droid Sans&amp;quot;, &amp;quot;Helvetica Neue&amp;quot;, sans-serif; font-size: 14px; text-wrap-mode: wrap; background-color: rgb(255, 255, 255);&quot;&gt;AzureGnpDev01&lt;/strong&gt;" style="swimlane;html=1;childLayout=stackLayout;resizeParent=1;resizeParentMax=0;horizontal=0;startSize=20;horizontalStack=0;fillColor=#ffe6cc;strokeColor=#d79b00;" parent="1" vertex="1">
          <mxGeometry x="120" y="120" width="910" height="390" as="geometry" />
        </mxCell>
        <mxCell id="dNxyNK7c78bLwvsdeMH5-20" value="&lt;span style=&quot;color: rgb(23, 43, 77); font-family: -apple-system, BlinkMacSystemFont, &amp;quot;Segoe UI&amp;quot;, Roboto, Oxygen, Ubuntu, &amp;quot;Fira Sans&amp;quot;, &amp;quot;Droid Sans&amp;quot;, &amp;quot;Helvetica Neue&amp;quot;, sans-serif; font-size: 14px; font-weight: 400; text-align: left; text-wrap-mode: wrap; background-color: rgb(255, 255, 255);&quot;&gt;region-dev-01&lt;/span&gt;" style="swimlane;html=1;startSize=20;horizontal=0;" parent="dNxyNK7c78bLwvsdeMH5-19" vertex="1">
          <mxGeometry x="20" width="890" height="130" as="geometry" />
        </mxCell>
        <mxCell id="paLNZTY16HyD8g1cgg1j-2" value="GWY" style="ellipse;whiteSpace=wrap;html=1;strokeWidth=2;fillWeight=2;hachureGap=8;fillColor=#990000;fillStyle=dots;sketch=1;" vertex="1" parent="dNxyNK7c78bLwvsdeMH5-20">
          <mxGeometry x="40" y="30" width="60" height="60" as="geometry" />
        </mxCell>
        <mxCell id="paLNZTY16HyD8g1cgg1j-1" value="&lt;font color=&quot;#f40b0b&quot; style=&quot;font-size: 24px;&quot;&gt;OAM&lt;/font&gt;" style="ellipse;whiteSpace=wrap;html=1;strokeWidth=2;fillWeight=2;hachureGap=8;fillColor=#990000;fillStyle=dots;sketch=1;" vertex="1" parent="dNxyNK7c78bLwvsdeMH5-20">
          <mxGeometry x="270" y="10" width="120" height="60" as="geometry" />
        </mxCell>
        <mxCell id="paLNZTY16HyD8g1cgg1j-3" value="CSP" style="ellipse;whiteSpace=wrap;html=1;strokeWidth=2;fillWeight=2;hachureGap=8;fillColor=#990000;fillStyle=dots;sketch=1;" vertex="1" parent="dNxyNK7c78bLwvsdeMH5-20">
          <mxGeometry x="110" y="30" width="60" height="60" as="geometry" />
        </mxCell>
        <mxCell id="paLNZTY16HyD8g1cgg1j-4" value="CSP" style="ellipse;whiteSpace=wrap;html=1;strokeWidth=2;fillWeight=2;hachureGap=8;fillColor=#990000;fillStyle=dots;sketch=1;" vertex="1" parent="dNxyNK7c78bLwvsdeMH5-20">
          <mxGeometry x="180" y="30" width="60" height="60" as="geometry" />
        </mxCell>
        <mxCell id="paLNZTY16HyD8g1cgg1j-29" value="JUMPHOST" style="rounded=1;whiteSpace=wrap;html=1;strokeWidth=2;fillWeight=4;hachureGap=8;hachureAngle=45;fillColor=#1ba1e2;sketch=1;" vertex="1" parent="dNxyNK7c78bLwvsdeMH5-20">
          <mxGeometry x="280" y="80" width="100" height="35" as="geometry" />
        </mxCell>
        <mxCell id="paLNZTY16HyD8g1cgg1j-40" value="storage account&lt;div&gt;region-dev-01&lt;/div&gt;&lt;div&gt;audit log&lt;/div&gt;" style="shape=ext;double=1;rounded=1;whiteSpace=wrap;html=1;" vertex="1" parent="dNxyNK7c78bLwvsdeMH5-20">
          <mxGeometry x="470" y="20" width="120" height="80" as="geometry" />
        </mxCell>
        <mxCell id="paLNZTY16HyD8g1cgg1j-48" value="" style="edgeStyle=elbowEdgeStyle;elbow=horizontal;endArrow=classic;html=1;curved=0;rounded=0;endSize=8;startSize=8;entryX=0;entryY=0.5;entryDx=0;entryDy=0;exitX=1;exitY=0.5;exitDx=0;exitDy=0;" edge="1" parent="dNxyNK7c78bLwvsdeMH5-20" source="paLNZTY16HyD8g1cgg1j-1" target="paLNZTY16HyD8g1cgg1j-40">
          <mxGeometry width="50" height="50" relative="1" as="geometry">
            <mxPoint x="390" y="100" as="sourcePoint" />
            <mxPoint x="440" y="50" as="targetPoint" />
          </mxGeometry>
        </mxCell>
        <mxCell id="paLNZTY16HyD8g1cgg1j-49" value="" style="edgeStyle=elbowEdgeStyle;elbow=horizontal;endArrow=classic;html=1;curved=0;rounded=0;endSize=8;startSize=8;entryX=0;entryY=0.5;entryDx=0;entryDy=0;exitX=1;exitY=0.5;exitDx=0;exitDy=0;" edge="1" parent="dNxyNK7c78bLwvsdeMH5-20" source="paLNZTY16HyD8g1cgg1j-29" target="paLNZTY16HyD8g1cgg1j-40">
          <mxGeometry width="50" height="50" relative="1" as="geometry">
            <mxPoint x="400" y="50" as="sourcePoint" />
            <mxPoint x="480" y="70" as="targetPoint" />
          </mxGeometry>
        </mxCell>
        <mxCell id="dNxyNK7c78bLwvsdeMH5-21" value="&lt;span style=&quot;color: rgb(23, 43, 77); font-family: -apple-system, BlinkMacSystemFont, &amp;quot;Segoe UI&amp;quot;, Roboto, Oxygen, Ubuntu, &amp;quot;Fira Sans&amp;quot;, &amp;quot;Droid Sans&amp;quot;, &amp;quot;Helvetica Neue&amp;quot;, sans-serif; font-size: 14px; font-weight: 400; text-align: left; text-wrap-mode: wrap; background-color: rgb(171, 245, 209);&quot;&gt;region-dev-02&lt;/span&gt;" style="swimlane;html=1;startSize=20;horizontal=0;" parent="dNxyNK7c78bLwvsdeMH5-19" vertex="1">
          <mxGeometry x="20" y="130" width="890" height="140" as="geometry" />
        </mxCell>
        <mxCell id="paLNZTY16HyD8g1cgg1j-5" value="GWY" style="ellipse;whiteSpace=wrap;html=1;strokeWidth=2;fillWeight=2;hachureGap=8;fillColor=#990000;fillStyle=dots;sketch=1;" vertex="1" parent="dNxyNK7c78bLwvsdeMH5-21">
          <mxGeometry x="45" y="30" width="60" height="60" as="geometry" />
        </mxCell>
        <mxCell id="paLNZTY16HyD8g1cgg1j-6" value="&lt;font color=&quot;#f40b0b&quot; style=&quot;font-size: 24px;&quot;&gt;OAM&lt;/font&gt;" style="ellipse;whiteSpace=wrap;html=1;strokeWidth=2;fillWeight=2;hachureGap=8;fillColor=#990000;fillStyle=dots;sketch=1;" vertex="1" parent="dNxyNK7c78bLwvsdeMH5-21">
          <mxGeometry x="274" y="10" width="120" height="60" as="geometry" />
        </mxCell>
        <mxCell id="paLNZTY16HyD8g1cgg1j-7" value="CSP" style="ellipse;whiteSpace=wrap;html=1;strokeWidth=2;fillWeight=2;hachureGap=8;fillColor=#990000;fillStyle=dots;sketch=1;" vertex="1" parent="dNxyNK7c78bLwvsdeMH5-21">
          <mxGeometry x="115" y="30" width="60" height="60" as="geometry" />
        </mxCell>
        <mxCell id="paLNZTY16HyD8g1cgg1j-8" value="CSP" style="ellipse;whiteSpace=wrap;html=1;strokeWidth=2;fillWeight=2;hachureGap=8;fillColor=#990000;fillStyle=dots;sketch=1;" vertex="1" parent="dNxyNK7c78bLwvsdeMH5-21">
          <mxGeometry x="185" y="30" width="60" height="60" as="geometry" />
        </mxCell>
        <mxCell id="paLNZTY16HyD8g1cgg1j-30" value="JUMPHOST" style="rounded=1;whiteSpace=wrap;html=1;strokeWidth=2;fillWeight=4;hachureGap=8;hachureAngle=45;fillColor=#1ba1e2;sketch=1;" vertex="1" parent="dNxyNK7c78bLwvsdeMH5-21">
          <mxGeometry x="284" y="80" width="100" height="35" as="geometry" />
        </mxCell>
        <mxCell id="paLNZTY16HyD8g1cgg1j-41" value="storage account&lt;div&gt;region-dev-02&lt;/div&gt;&lt;div&gt;audit log&lt;/div&gt;" style="shape=ext;double=1;rounded=1;whiteSpace=wrap;html=1;" vertex="1" parent="dNxyNK7c78bLwvsdeMH5-21">
          <mxGeometry x="470" y="20" width="120" height="80" as="geometry" />
        </mxCell>
        <mxCell id="paLNZTY16HyD8g1cgg1j-50" value="" style="edgeStyle=elbowEdgeStyle;elbow=horizontal;endArrow=classic;html=1;curved=0;rounded=0;endSize=8;startSize=8;" edge="1" parent="dNxyNK7c78bLwvsdeMH5-21" source="paLNZTY16HyD8g1cgg1j-6" target="paLNZTY16HyD8g1cgg1j-41">
          <mxGeometry width="50" height="50" relative="1" as="geometry">
            <mxPoint x="410" y="-70" as="sourcePoint" />
            <mxPoint x="490" y="-50" as="targetPoint" />
          </mxGeometry>
        </mxCell>
        <mxCell id="paLNZTY16HyD8g1cgg1j-51" value="" style="edgeStyle=elbowEdgeStyle;elbow=horizontal;endArrow=classic;html=1;curved=0;rounded=0;endSize=8;startSize=8;entryX=0;entryY=0.5;entryDx=0;entryDy=0;exitX=1;exitY=0.5;exitDx=0;exitDy=0;" edge="1" parent="dNxyNK7c78bLwvsdeMH5-21" source="paLNZTY16HyD8g1cgg1j-30" target="paLNZTY16HyD8g1cgg1j-41">
          <mxGeometry width="50" height="50" relative="1" as="geometry">
            <mxPoint x="420" y="-60" as="sourcePoint" />
            <mxPoint x="500" y="-40" as="targetPoint" />
          </mxGeometry>
        </mxCell>
        <mxCell id="paLNZTY16HyD8g1cgg1j-72" value="" style="edgeStyle=elbowEdgeStyle;elbow=horizontal;endArrow=classic;html=1;curved=0;rounded=0;endSize=8;startSize=8;exitX=1;exitY=0.5;exitDx=0;exitDy=0;entryX=0;entryY=0.5;entryDx=0;entryDy=0;" edge="1" parent="dNxyNK7c78bLwvsdeMH5-21">
          <mxGeometry width="50" height="50" relative="1" as="geometry">
            <mxPoint x="590" y="59.65999999999997" as="sourcePoint" />
            <mxPoint x="640" y="60" as="targetPoint" />
          </mxGeometry>
        </mxCell>
        <mxCell id="dNxyNK7c78bLwvsdeMH5-22" value="&lt;span style=&quot;color: rgb(23, 43, 77); font-family: -apple-system, BlinkMacSystemFont, &amp;quot;Segoe UI&amp;quot;, Roboto, Oxygen, Ubuntu, &amp;quot;Fira Sans&amp;quot;, &amp;quot;Droid Sans&amp;quot;, &amp;quot;Helvetica Neue&amp;quot;, sans-serif; font-size: 14px; font-weight: 400; text-align: left; text-wrap-mode: wrap; background-color: rgb(255, 255, 255);&quot;&gt;region-dev-03&lt;/span&gt;" style="swimlane;html=1;startSize=20;horizontal=0;" parent="dNxyNK7c78bLwvsdeMH5-19" vertex="1">
          <mxGeometry x="20" y="270" width="890" height="120" as="geometry" />
        </mxCell>
        <mxCell id="paLNZTY16HyD8g1cgg1j-9" value="GWY" style="ellipse;whiteSpace=wrap;html=1;strokeWidth=2;fillWeight=2;hachureGap=8;fillColor=#990000;fillStyle=dots;sketch=1;" vertex="1" parent="dNxyNK7c78bLwvsdeMH5-22">
          <mxGeometry x="45" y="30" width="60" height="60" as="geometry" />
        </mxCell>
        <mxCell id="paLNZTY16HyD8g1cgg1j-10" value="&lt;font color=&quot;#f40b0b&quot; style=&quot;font-size: 24px;&quot;&gt;OAM&lt;/font&gt;" style="ellipse;whiteSpace=wrap;html=1;strokeWidth=2;fillWeight=2;hachureGap=8;fillColor=#990000;fillStyle=dots;sketch=1;" vertex="1" parent="dNxyNK7c78bLwvsdeMH5-22">
          <mxGeometry x="274" y="10" width="120" height="60" as="geometry" />
        </mxCell>
        <mxCell id="paLNZTY16HyD8g1cgg1j-11" value="CSP" style="ellipse;whiteSpace=wrap;html=1;strokeWidth=2;fillWeight=2;hachureGap=8;fillColor=#990000;fillStyle=dots;sketch=1;" vertex="1" parent="dNxyNK7c78bLwvsdeMH5-22">
          <mxGeometry x="115" y="30" width="60" height="60" as="geometry" />
        </mxCell>
        <mxCell id="paLNZTY16HyD8g1cgg1j-12" value="CSP" style="ellipse;whiteSpace=wrap;html=1;strokeWidth=2;fillWeight=2;hachureGap=8;fillColor=#990000;fillStyle=dots;sketch=1;" vertex="1" parent="dNxyNK7c78bLwvsdeMH5-22">
          <mxGeometry x="185" y="30" width="60" height="60" as="geometry" />
        </mxCell>
        <mxCell id="paLNZTY16HyD8g1cgg1j-31" value="JUMPHOST" style="rounded=1;whiteSpace=wrap;html=1;strokeWidth=2;fillWeight=4;hachureGap=8;hachureAngle=45;fillColor=#1ba1e2;sketch=1;" vertex="1" parent="dNxyNK7c78bLwvsdeMH5-22">
          <mxGeometry x="284" y="80" width="100" height="35" as="geometry" />
        </mxCell>
        <mxCell id="paLNZTY16HyD8g1cgg1j-42" value="storage account&lt;div&gt;region-dev-03&lt;/div&gt;&lt;div&gt;audit log&lt;/div&gt;" style="shape=ext;double=1;rounded=1;whiteSpace=wrap;html=1;" vertex="1" parent="dNxyNK7c78bLwvsdeMH5-22">
          <mxGeometry x="470" y="20" width="120" height="80" as="geometry" />
        </mxCell>
        <mxCell id="paLNZTY16HyD8g1cgg1j-53" value="" style="edgeStyle=elbowEdgeStyle;elbow=horizontal;endArrow=classic;html=1;curved=0;rounded=0;endSize=8;startSize=8;exitX=1;exitY=0.5;exitDx=0;exitDy=0;entryX=0;entryY=0.5;entryDx=0;entryDy=0;" edge="1" parent="dNxyNK7c78bLwvsdeMH5-22" source="paLNZTY16HyD8g1cgg1j-31" target="paLNZTY16HyD8g1cgg1j-42">
          <mxGeometry width="50" height="50" relative="1" as="geometry">
            <mxPoint x="410" y="50" as="sourcePoint" />
            <mxPoint x="480" y="70" as="targetPoint" />
          </mxGeometry>
        </mxCell>
        <mxCell id="paLNZTY16HyD8g1cgg1j-69" value="storage account&lt;div&gt;&lt;span style=&quot;font-weight: 700; text-wrap-mode: nowrap;&quot;&gt;Subscription:&amp;nbsp;&lt;br&gt;&lt;/span&gt;&lt;strong style=&quot;color: rgb(23, 43, 77); font-family: -apple-system, BlinkMacSystemFont, &amp;quot;Segoe UI&amp;quot;, Roboto, Oxygen, Ubuntu, &amp;quot;Fira Sans&amp;quot;, &amp;quot;Droid Sans&amp;quot;, &amp;quot;Helvetica Neue&amp;quot;, sans-serif; font-size: 14px; background-color: rgb(255, 255, 255);&quot;&gt;AzureGnpDev01&lt;/strong&gt;&lt;/div&gt;&lt;div&gt;audit log&lt;/div&gt;" style="shape=ext;double=1;rounded=1;whiteSpace=wrap;html=1;" vertex="1" parent="dNxyNK7c78bLwvsdeMH5-22">
          <mxGeometry x="750" y="-160" width="120" height="200" as="geometry" />
        </mxCell>
        <mxCell id="paLNZTY16HyD8g1cgg1j-77" value="Azure Function" style="icon;html=1;image=img/clipart/Gear_128x128.png" vertex="1" parent="dNxyNK7c78bLwvsdeMH5-22">
          <mxGeometry x="640" y="-170" width="60" height="220" as="geometry" />
        </mxCell>
        <mxCell id="paLNZTY16HyD8g1cgg1j-78" value="" style="edgeStyle=elbowEdgeStyle;elbow=horizontal;endArrow=classic;html=1;curved=0;rounded=0;endSize=8;startSize=8;exitX=1;exitY=0.5;exitDx=0;exitDy=0;entryX=0;entryY=0.5;entryDx=0;entryDy=0;" edge="1" parent="dNxyNK7c78bLwvsdeMH5-22" source="paLNZTY16HyD8g1cgg1j-77" target="paLNZTY16HyD8g1cgg1j-69">
          <mxGeometry width="50" height="50" relative="1" as="geometry">
            <mxPoint x="600" y="-70.34000000000003" as="sourcePoint" />
            <mxPoint x="650" y="-70" as="targetPoint" />
          </mxGeometry>
        </mxCell>
        <mxCell id="paLNZTY16HyD8g1cgg1j-113" value="" style="edgeStyle=elbowEdgeStyle;elbow=horizontal;endArrow=classic;html=1;curved=0;rounded=0;endSize=8;startSize=8;exitX=1;exitY=0.5;exitDx=0;exitDy=0;entryX=-0.02;entryY=0.413;entryDx=0;entryDy=0;entryPerimeter=0;" edge="1" parent="dNxyNK7c78bLwvsdeMH5-19" source="paLNZTY16HyD8g1cgg1j-40" target="paLNZTY16HyD8g1cgg1j-77">
          <mxGeometry width="50" height="50" relative="1" as="geometry">
            <mxPoint x="620" y="199.65999999999997" as="sourcePoint" />
            <mxPoint x="670" y="200" as="targetPoint" />
          </mxGeometry>
        </mxCell>
        <mxCell id="paLNZTY16HyD8g1cgg1j-13" value="Subscription:&amp;nbsp;&lt;strong style=&quot;color: rgb(23, 43, 77); font-family: -apple-system, BlinkMacSystemFont, &amp;quot;Segoe UI&amp;quot;, Roboto, Oxygen, Ubuntu, &amp;quot;Fira Sans&amp;quot;, &amp;quot;Droid Sans&amp;quot;, &amp;quot;Helvetica Neue&amp;quot;, sans-serif; font-size: 14px; text-wrap-mode: wrap; background-color: rgb(255, 255, 255);&quot;&gt;AzureGnpStagingTest01&lt;/strong&gt;" style="swimlane;html=1;childLayout=stackLayout;resizeParent=1;resizeParentMax=0;horizontal=0;startSize=20;horizontalStack=0;fillColor=#dae8fc;strokeColor=#6c8ebf;" vertex="1" parent="1">
          <mxGeometry x="120" y="520" width="910" height="360" as="geometry" />
        </mxCell>
        <mxCell id="paLNZTY16HyD8g1cgg1j-14" value="&lt;span style=&quot;color: rgb(23, 43, 77); font-family: -apple-system, BlinkMacSystemFont, &amp;quot;Segoe UI&amp;quot;, Roboto, Oxygen, Ubuntu, &amp;quot;Fira Sans&amp;quot;, &amp;quot;Droid Sans&amp;quot;, &amp;quot;Helvetica Neue&amp;quot;, sans-serif; font-size: 14px; font-weight: 400; text-align: left; text-wrap-mode: wrap; background-color: rgb(255, 255, 255);&quot;&gt;region-staging-02&lt;/span&gt;" style="swimlane;html=1;startSize=20;horizontal=0;" vertex="1" parent="paLNZTY16HyD8g1cgg1j-13">
          <mxGeometry x="20" width="890" height="120" as="geometry" />
        </mxCell>
        <mxCell id="paLNZTY16HyD8g1cgg1j-15" value="GWY" style="ellipse;whiteSpace=wrap;html=1;strokeWidth=2;fillWeight=2;hachureGap=8;fillColor=#990000;fillStyle=dots;sketch=1;" vertex="1" parent="paLNZTY16HyD8g1cgg1j-14">
          <mxGeometry x="40" y="30" width="60" height="60" as="geometry" />
        </mxCell>
        <mxCell id="paLNZTY16HyD8g1cgg1j-16" value="&lt;font color=&quot;#f40b0b&quot; style=&quot;font-size: 24px;&quot;&gt;OAM&lt;/font&gt;" style="ellipse;whiteSpace=wrap;html=1;strokeWidth=2;fillWeight=2;hachureGap=8;fillColor=#990000;fillStyle=dots;sketch=1;" vertex="1" parent="paLNZTY16HyD8g1cgg1j-14">
          <mxGeometry x="270" y="10" width="120" height="60" as="geometry" />
        </mxCell>
        <mxCell id="paLNZTY16HyD8g1cgg1j-17" value="CSP" style="ellipse;whiteSpace=wrap;html=1;strokeWidth=2;fillWeight=2;hachureGap=8;fillColor=#990000;fillStyle=dots;sketch=1;" vertex="1" parent="paLNZTY16HyD8g1cgg1j-14">
          <mxGeometry x="110" y="30" width="60" height="60" as="geometry" />
        </mxCell>
        <mxCell id="paLNZTY16HyD8g1cgg1j-18" value="CSP" style="ellipse;whiteSpace=wrap;html=1;strokeWidth=2;fillWeight=2;hachureGap=8;fillColor=#990000;fillStyle=dots;sketch=1;" vertex="1" parent="paLNZTY16HyD8g1cgg1j-14">
          <mxGeometry x="180" y="30" width="60" height="60" as="geometry" />
        </mxCell>
        <mxCell id="paLNZTY16HyD8g1cgg1j-32" value="JUMPHOST" style="rounded=1;whiteSpace=wrap;html=1;strokeWidth=2;fillWeight=4;hachureGap=8;hachureAngle=45;fillColor=#1ba1e2;sketch=1;" vertex="1" parent="paLNZTY16HyD8g1cgg1j-14">
          <mxGeometry x="280" y="80" width="100" height="35" as="geometry" />
        </mxCell>
        <mxCell id="paLNZTY16HyD8g1cgg1j-43" value="storage account&lt;div&gt;region-staging-02&lt;/div&gt;&lt;div&gt;audit log&lt;/div&gt;" style="shape=ext;double=1;rounded=1;whiteSpace=wrap;html=1;" vertex="1" parent="paLNZTY16HyD8g1cgg1j-14">
          <mxGeometry x="470" y="25" width="120" height="80" as="geometry" />
        </mxCell>
        <mxCell id="paLNZTY16HyD8g1cgg1j-54" value="" style="edgeStyle=elbowEdgeStyle;elbow=horizontal;endArrow=classic;html=1;curved=0;rounded=0;endSize=8;startSize=8;exitX=1;exitY=0.5;exitDx=0;exitDy=0;entryX=0;entryY=0.5;entryDx=0;entryDy=0;" edge="1" parent="paLNZTY16HyD8g1cgg1j-14" source="paLNZTY16HyD8g1cgg1j-16" target="paLNZTY16HyD8g1cgg1j-43">
          <mxGeometry width="50" height="50" relative="1" as="geometry">
            <mxPoint x="394" y="-42" as="sourcePoint" />
            <mxPoint x="480" y="-80" as="targetPoint" />
          </mxGeometry>
        </mxCell>
        <mxCell id="paLNZTY16HyD8g1cgg1j-55" value="" style="edgeStyle=elbowEdgeStyle;elbow=horizontal;endArrow=classic;html=1;curved=0;rounded=0;endSize=8;startSize=8;exitX=1;exitY=0.5;exitDx=0;exitDy=0;entryX=0;entryY=0.5;entryDx=0;entryDy=0;" edge="1" parent="paLNZTY16HyD8g1cgg1j-14" source="paLNZTY16HyD8g1cgg1j-32" target="paLNZTY16HyD8g1cgg1j-43">
          <mxGeometry width="50" height="50" relative="1" as="geometry">
            <mxPoint x="400" y="50" as="sourcePoint" />
            <mxPoint x="480" y="75" as="targetPoint" />
          </mxGeometry>
        </mxCell>
        <mxCell id="paLNZTY16HyD8g1cgg1j-19" value="&lt;span style=&quot;color: rgb(23, 43, 77); font-family: -apple-system, BlinkMacSystemFont, &amp;quot;Segoe UI&amp;quot;, Roboto, Oxygen, Ubuntu, &amp;quot;Fira Sans&amp;quot;, &amp;quot;Droid Sans&amp;quot;, &amp;quot;Helvetica Neue&amp;quot;, sans-serif; font-size: 14px; font-weight: 400; text-align: left; text-wrap-mode: wrap; background-color: rgb(255, 255, 255);&quot;&gt;region-staging-03&lt;/span&gt;" style="swimlane;html=1;startSize=20;horizontal=0;" vertex="1" parent="paLNZTY16HyD8g1cgg1j-13">
          <mxGeometry x="20" y="120" width="890" height="120" as="geometry" />
        </mxCell>
        <mxCell id="paLNZTY16HyD8g1cgg1j-20" value="GWY" style="ellipse;whiteSpace=wrap;html=1;strokeWidth=2;fillWeight=2;hachureGap=8;fillColor=#990000;fillStyle=dots;sketch=1;" vertex="1" parent="paLNZTY16HyD8g1cgg1j-19">
          <mxGeometry x="45" y="30" width="60" height="60" as="geometry" />
        </mxCell>
        <mxCell id="paLNZTY16HyD8g1cgg1j-21" value="&lt;font color=&quot;#f40b0b&quot; style=&quot;font-size: 24px;&quot;&gt;OAM&lt;/font&gt;" style="ellipse;whiteSpace=wrap;html=1;strokeWidth=2;fillWeight=2;hachureGap=8;fillColor=#990000;fillStyle=dots;sketch=1;" vertex="1" parent="paLNZTY16HyD8g1cgg1j-19">
          <mxGeometry x="270" y="10" width="120" height="60" as="geometry" />
        </mxCell>
        <mxCell id="paLNZTY16HyD8g1cgg1j-22" value="CSP" style="ellipse;whiteSpace=wrap;html=1;strokeWidth=2;fillWeight=2;hachureGap=8;fillColor=#990000;fillStyle=dots;sketch=1;" vertex="1" parent="paLNZTY16HyD8g1cgg1j-19">
          <mxGeometry x="115" y="30" width="60" height="60" as="geometry" />
        </mxCell>
        <mxCell id="paLNZTY16HyD8g1cgg1j-23" value="CSP" style="ellipse;whiteSpace=wrap;html=1;strokeWidth=2;fillWeight=2;hachureGap=8;fillColor=#990000;fillStyle=dots;sketch=1;" vertex="1" parent="paLNZTY16HyD8g1cgg1j-19">
          <mxGeometry x="185" y="30" width="60" height="60" as="geometry" />
        </mxCell>
        <mxCell id="paLNZTY16HyD8g1cgg1j-33" value="JUMPHOST" style="rounded=1;whiteSpace=wrap;html=1;strokeWidth=2;fillWeight=4;hachureGap=8;hachureAngle=45;fillColor=#1ba1e2;sketch=1;" vertex="1" parent="paLNZTY16HyD8g1cgg1j-19">
          <mxGeometry x="274" y="80" width="100" height="35" as="geometry" />
        </mxCell>
        <mxCell id="paLNZTY16HyD8g1cgg1j-44" value="storage account&lt;div&gt;region-staging-03&lt;/div&gt;&lt;div&gt;audit log&lt;/div&gt;" style="shape=ext;double=1;rounded=1;whiteSpace=wrap;html=1;" vertex="1" parent="paLNZTY16HyD8g1cgg1j-19">
          <mxGeometry x="470" y="20" width="120" height="80" as="geometry" />
        </mxCell>
        <mxCell id="paLNZTY16HyD8g1cgg1j-56" value="" style="edgeStyle=elbowEdgeStyle;elbow=horizontal;endArrow=classic;html=1;curved=0;rounded=0;endSize=8;startSize=8;exitX=1;exitY=0.5;exitDx=0;exitDy=0;" edge="1" parent="paLNZTY16HyD8g1cgg1j-19" source="paLNZTY16HyD8g1cgg1j-21" target="paLNZTY16HyD8g1cgg1j-44">
          <mxGeometry width="50" height="50" relative="1" as="geometry">
            <mxPoint x="410" y="-60" as="sourcePoint" />
            <mxPoint x="490" y="-35" as="targetPoint" />
          </mxGeometry>
        </mxCell>
        <mxCell id="paLNZTY16HyD8g1cgg1j-57" value="" style="edgeStyle=elbowEdgeStyle;elbow=horizontal;endArrow=classic;html=1;curved=0;rounded=0;endSize=8;startSize=8;exitX=1;exitY=0.5;exitDx=0;exitDy=0;entryX=0;entryY=0.5;entryDx=0;entryDy=0;" edge="1" parent="paLNZTY16HyD8g1cgg1j-19" source="paLNZTY16HyD8g1cgg1j-33" target="paLNZTY16HyD8g1cgg1j-44">
          <mxGeometry width="50" height="50" relative="1" as="geometry">
            <mxPoint x="400" y="50" as="sourcePoint" />
            <mxPoint x="480" y="70" as="targetPoint" />
          </mxGeometry>
        </mxCell>
        <mxCell id="paLNZTY16HyD8g1cgg1j-75" value="" style="edgeStyle=elbowEdgeStyle;elbow=horizontal;endArrow=classic;html=1;curved=0;rounded=0;endSize=8;startSize=8;exitX=1;exitY=0.5;exitDx=0;exitDy=0;" edge="1" parent="paLNZTY16HyD8g1cgg1j-19">
          <mxGeometry width="50" height="50" relative="1" as="geometry">
            <mxPoint x="590" y="59.66000000000008" as="sourcePoint" />
            <mxPoint x="640" y="59.66000000000008" as="targetPoint" />
          </mxGeometry>
        </mxCell>
        <mxCell id="paLNZTY16HyD8g1cgg1j-79" value="" style="edgeStyle=elbowEdgeStyle;elbow=horizontal;endArrow=classic;html=1;curved=0;rounded=0;endSize=8;startSize=8;exitX=1;exitY=0.5;exitDx=0;exitDy=0;entryX=0;entryY=0.5;entryDx=0;entryDy=0;" edge="1" parent="paLNZTY16HyD8g1cgg1j-19">
          <mxGeometry width="50" height="50" relative="1" as="geometry">
            <mxPoint x="700" y="59.66" as="sourcePoint" />
            <mxPoint x="750" y="59.66" as="targetPoint" />
          </mxGeometry>
        </mxCell>
        <mxCell id="paLNZTY16HyD8g1cgg1j-24" value="&lt;span style=&quot;color: rgb(23, 43, 77); font-family: -apple-system, BlinkMacSystemFont, &amp;quot;Segoe UI&amp;quot;, Roboto, Oxygen, Ubuntu, &amp;quot;Fira Sans&amp;quot;, &amp;quot;Droid Sans&amp;quot;, &amp;quot;Helvetica Neue&amp;quot;, sans-serif; font-size: 14px; font-weight: 400; text-align: left; text-wrap-mode: wrap; background-color: rgb(255, 255, 255);&quot;&gt;region-staging-04&lt;/span&gt;" style="swimlane;html=1;startSize=20;horizontal=0;" vertex="1" parent="paLNZTY16HyD8g1cgg1j-13">
          <mxGeometry x="20" y="240" width="890" height="120" as="geometry" />
        </mxCell>
        <mxCell id="paLNZTY16HyD8g1cgg1j-25" value="GWY" style="ellipse;whiteSpace=wrap;html=1;strokeWidth=2;fillWeight=2;hachureGap=8;fillColor=#990000;fillStyle=dots;sketch=1;" vertex="1" parent="paLNZTY16HyD8g1cgg1j-24">
          <mxGeometry x="45" y="30" width="60" height="60" as="geometry" />
        </mxCell>
        <mxCell id="paLNZTY16HyD8g1cgg1j-26" value="&lt;font color=&quot;#f40b0b&quot; style=&quot;font-size: 24px;&quot;&gt;OAM&lt;/font&gt;" style="ellipse;whiteSpace=wrap;html=1;strokeWidth=2;fillWeight=2;hachureGap=8;fillColor=#990000;fillStyle=dots;sketch=1;" vertex="1" parent="paLNZTY16HyD8g1cgg1j-24">
          <mxGeometry x="270" y="10" width="120" height="60" as="geometry" />
        </mxCell>
        <mxCell id="paLNZTY16HyD8g1cgg1j-27" value="CSP" style="ellipse;whiteSpace=wrap;html=1;strokeWidth=2;fillWeight=2;hachureGap=8;fillColor=#990000;fillStyle=dots;sketch=1;" vertex="1" parent="paLNZTY16HyD8g1cgg1j-24">
          <mxGeometry x="115" y="30" width="60" height="60" as="geometry" />
        </mxCell>
        <mxCell id="paLNZTY16HyD8g1cgg1j-28" value="CSP" style="ellipse;whiteSpace=wrap;html=1;strokeWidth=2;fillWeight=2;hachureGap=8;fillColor=#990000;fillStyle=dots;sketch=1;" vertex="1" parent="paLNZTY16HyD8g1cgg1j-24">
          <mxGeometry x="185" y="30" width="60" height="60" as="geometry" />
        </mxCell>
        <mxCell id="paLNZTY16HyD8g1cgg1j-34" value="JUMPHOST" style="rounded=1;whiteSpace=wrap;html=1;strokeWidth=2;fillWeight=4;hachureGap=8;hachureAngle=45;fillColor=#1ba1e2;sketch=1;" vertex="1" parent="paLNZTY16HyD8g1cgg1j-24">
          <mxGeometry x="280" y="80" width="100" height="35" as="geometry" />
        </mxCell>
        <mxCell id="paLNZTY16HyD8g1cgg1j-37" value="" style="line;strokeWidth=2;direction=south;html=1;" vertex="1" parent="paLNZTY16HyD8g1cgg1j-24">
          <mxGeometry x="410" y="-640" width="10" height="760" as="geometry" />
        </mxCell>
        <mxCell id="paLNZTY16HyD8g1cgg1j-45" value="storage account&lt;div&gt;region-staging-04&lt;/div&gt;&lt;div&gt;audit log&lt;/div&gt;" style="shape=ext;double=1;rounded=1;whiteSpace=wrap;html=1;" vertex="1" parent="paLNZTY16HyD8g1cgg1j-24">
          <mxGeometry x="470" y="20" width="120" height="80" as="geometry" />
        </mxCell>
        <mxCell id="paLNZTY16HyD8g1cgg1j-58" value="" style="edgeStyle=elbowEdgeStyle;elbow=horizontal;endArrow=classic;html=1;curved=0;rounded=0;endSize=8;startSize=8;exitX=1;exitY=0.5;exitDx=0;exitDy=0;entryX=0;entryY=0.5;entryDx=0;entryDy=0;" edge="1" parent="paLNZTY16HyD8g1cgg1j-24" source="paLNZTY16HyD8g1cgg1j-26" target="paLNZTY16HyD8g1cgg1j-45">
          <mxGeometry width="50" height="50" relative="1" as="geometry">
            <mxPoint x="410" y="-60" as="sourcePoint" />
            <mxPoint x="490" y="-40" as="targetPoint" />
          </mxGeometry>
        </mxCell>
        <mxCell id="paLNZTY16HyD8g1cgg1j-59" value="" style="edgeStyle=elbowEdgeStyle;elbow=horizontal;endArrow=classic;html=1;curved=0;rounded=0;endSize=8;startSize=8;exitX=1;exitY=0.5;exitDx=0;exitDy=0;entryX=0;entryY=0.5;entryDx=0;entryDy=0;" edge="1" parent="paLNZTY16HyD8g1cgg1j-24" source="paLNZTY16HyD8g1cgg1j-34" target="paLNZTY16HyD8g1cgg1j-45">
          <mxGeometry width="50" height="50" relative="1" as="geometry">
            <mxPoint x="400" y="50" as="sourcePoint" />
            <mxPoint x="480" y="70" as="targetPoint" />
          </mxGeometry>
        </mxCell>
        <mxCell id="paLNZTY16HyD8g1cgg1j-70" value="storage account&lt;div&gt;&lt;span style=&quot;font-weight: 700; text-wrap-mode: nowrap;&quot;&gt;Subscription:&amp;nbsp;&lt;br&gt;&lt;/span&gt;&lt;strong style=&quot;color: rgb(23, 43, 77); font-family: -apple-system, BlinkMacSystemFont, &amp;quot;Segoe UI&amp;quot;, Roboto, Oxygen, Ubuntu, &amp;quot;Fira Sans&amp;quot;, &amp;quot;Droid Sans&amp;quot;, &amp;quot;Helvetica Neue&amp;quot;, sans-serif; font-size: 14px; background-color: rgb(255, 255, 255);&quot;&gt;AzureGnpStagingTest01&lt;/strong&gt;&lt;/div&gt;&lt;div&gt;audit log&lt;/div&gt;" style="shape=ext;double=1;rounded=1;whiteSpace=wrap;html=1;" vertex="1" parent="paLNZTY16HyD8g1cgg1j-24">
          <mxGeometry x="750" y="-150" width="120" height="200" as="geometry" />
        </mxCell>
        <mxCell id="paLNZTY16HyD8g1cgg1j-67" value="Azure Function" style="icon;html=1;image=img/clipart/Gear_128x128.png" vertex="1" parent="paLNZTY16HyD8g1cgg1j-24">
          <mxGeometry x="640" y="-150" width="60" height="200" as="geometry" />
        </mxCell>
        <mxCell id="paLNZTY16HyD8g1cgg1j-115" value="" style="edgeStyle=elbowEdgeStyle;elbow=horizontal;endArrow=classic;html=1;curved=0;rounded=0;endSize=8;startSize=8;exitX=1;exitY=0.5;exitDx=0;exitDy=0;entryX=-0.02;entryY=0.451;entryDx=0;entryDy=0;entryPerimeter=0;" edge="1" parent="paLNZTY16HyD8g1cgg1j-13" source="paLNZTY16HyD8g1cgg1j-43" target="paLNZTY16HyD8g1cgg1j-67">
          <mxGeometry width="50" height="50" relative="1" as="geometry">
            <mxPoint x="620" y="189.66000000000008" as="sourcePoint" />
            <mxPoint x="670" y="189.66000000000008" as="targetPoint" />
          </mxGeometry>
        </mxCell>
        <mxCell id="paLNZTY16HyD8g1cgg1j-52" value="" style="edgeStyle=elbowEdgeStyle;elbow=horizontal;endArrow=classic;html=1;curved=0;rounded=0;endSize=8;startSize=8;" edge="1" parent="1" target="paLNZTY16HyD8g1cgg1j-42">
          <mxGeometry width="50" height="50" relative="1" as="geometry">
            <mxPoint x="540" y="430" as="sourcePoint" />
            <mxPoint x="650" y="220" as="targetPoint" />
          </mxGeometry>
        </mxCell>
        <mxCell id="paLNZTY16HyD8g1cgg1j-80" value="Subscription:&amp;nbsp;&lt;strong style=&quot;color: rgb(23, 43, 77); font-family: -apple-system, BlinkMacSystemFont, &amp;quot;Segoe UI&amp;quot;, Roboto, Oxygen, Ubuntu, &amp;quot;Fira Sans&amp;quot;, &amp;quot;Droid Sans&amp;quot;, &amp;quot;Helvetica Neue&amp;quot;, sans-serif; font-size: 14px; text-wrap-mode: wrap; background-color: rgb(255, 255, 255);&quot;&gt;&lt;span class=&quot;ui-provider bkn bko bkp bkq bkr bks bkt bku bkv bkw bkx bky bkz bla blb blc bld ble blf blg blh bli blj blk bll blm bln blo blp blq blr bls blt blu blv&quot;&gt;AzureGnpEmeaProd01&lt;/span&gt;&lt;/strong&gt;" style="swimlane;html=1;childLayout=stackLayout;resizeParent=1;resizeParentMax=0;horizontal=0;startSize=20;horizontalStack=0;fillColor=#fff2cc;strokeColor=#d6b656;" vertex="1" parent="1">
          <mxGeometry x="120" y="900" width="910" height="360" as="geometry" />
        </mxCell>
        <mxCell id="paLNZTY16HyD8g1cgg1j-81" value="&lt;span style=&quot;color: rgb(23, 43, 77); font-family: -apple-system, BlinkMacSystemFont, &amp;quot;Segoe UI&amp;quot;, Roboto, Oxygen, Ubuntu, &amp;quot;Fira Sans&amp;quot;, &amp;quot;Droid Sans&amp;quot;, &amp;quot;Helvetica Neue&amp;quot;, sans-serif; font-size: 14px; font-weight: 400; text-align: left; text-wrap-mode: wrap; background-color: rgb(255, 255, 255);&quot;&gt;region-prod-emea-01&lt;/span&gt;" style="swimlane;html=1;startSize=20;horizontal=0;" vertex="1" parent="paLNZTY16HyD8g1cgg1j-80">
          <mxGeometry x="20" width="890" height="120" as="geometry" />
        </mxCell>
        <mxCell id="paLNZTY16HyD8g1cgg1j-82" value="GWY" style="ellipse;whiteSpace=wrap;html=1;strokeWidth=2;fillWeight=2;hachureGap=8;fillColor=#990000;fillStyle=dots;sketch=1;" vertex="1" parent="paLNZTY16HyD8g1cgg1j-81">
          <mxGeometry x="40" y="30" width="60" height="60" as="geometry" />
        </mxCell>
        <mxCell id="paLNZTY16HyD8g1cgg1j-83" value="&lt;font color=&quot;#f40b0b&quot; style=&quot;font-size: 24px;&quot;&gt;OAM&lt;/font&gt;" style="ellipse;whiteSpace=wrap;html=1;strokeWidth=2;fillWeight=2;hachureGap=8;fillColor=#990000;fillStyle=dots;sketch=1;" vertex="1" parent="paLNZTY16HyD8g1cgg1j-81">
          <mxGeometry x="270" y="10" width="120" height="60" as="geometry" />
        </mxCell>
        <mxCell id="paLNZTY16HyD8g1cgg1j-84" value="CSP" style="ellipse;whiteSpace=wrap;html=1;strokeWidth=2;fillWeight=2;hachureGap=8;fillColor=#990000;fillStyle=dots;sketch=1;" vertex="1" parent="paLNZTY16HyD8g1cgg1j-81">
          <mxGeometry x="110" y="30" width="60" height="60" as="geometry" />
        </mxCell>
        <mxCell id="paLNZTY16HyD8g1cgg1j-85" value="CSP" style="ellipse;whiteSpace=wrap;html=1;strokeWidth=2;fillWeight=2;hachureGap=8;fillColor=#990000;fillStyle=dots;sketch=1;" vertex="1" parent="paLNZTY16HyD8g1cgg1j-81">
          <mxGeometry x="180" y="30" width="60" height="60" as="geometry" />
        </mxCell>
        <mxCell id="paLNZTY16HyD8g1cgg1j-86" value="JUMPHOST" style="rounded=1;whiteSpace=wrap;html=1;strokeWidth=2;fillWeight=4;hachureGap=8;hachureAngle=45;fillColor=#1ba1e2;sketch=1;" vertex="1" parent="paLNZTY16HyD8g1cgg1j-81">
          <mxGeometry x="280" y="80" width="100" height="35" as="geometry" />
        </mxCell>
        <mxCell id="paLNZTY16HyD8g1cgg1j-87" value="storage account&lt;div&gt;region-prod-emea-02&lt;/div&gt;&lt;div&gt;audit log&lt;/div&gt;" style="shape=ext;double=1;rounded=1;whiteSpace=wrap;html=1;" vertex="1" parent="paLNZTY16HyD8g1cgg1j-81">
          <mxGeometry x="470" y="25" width="120" height="80" as="geometry" />
        </mxCell>
        <mxCell id="paLNZTY16HyD8g1cgg1j-88" value="" style="edgeStyle=elbowEdgeStyle;elbow=horizontal;endArrow=classic;html=1;curved=0;rounded=0;endSize=8;startSize=8;exitX=1;exitY=0.5;exitDx=0;exitDy=0;entryX=0;entryY=0.5;entryDx=0;entryDy=0;" edge="1" parent="paLNZTY16HyD8g1cgg1j-81" source="paLNZTY16HyD8g1cgg1j-83" target="paLNZTY16HyD8g1cgg1j-87">
          <mxGeometry width="50" height="50" relative="1" as="geometry">
            <mxPoint x="394" y="-42" as="sourcePoint" />
            <mxPoint x="480" y="-80" as="targetPoint" />
          </mxGeometry>
        </mxCell>
        <mxCell id="paLNZTY16HyD8g1cgg1j-89" value="" style="edgeStyle=elbowEdgeStyle;elbow=horizontal;endArrow=classic;html=1;curved=0;rounded=0;endSize=8;startSize=8;exitX=1;exitY=0.5;exitDx=0;exitDy=0;entryX=0;entryY=0.5;entryDx=0;entryDy=0;" edge="1" parent="paLNZTY16HyD8g1cgg1j-81" source="paLNZTY16HyD8g1cgg1j-86" target="paLNZTY16HyD8g1cgg1j-87">
          <mxGeometry width="50" height="50" relative="1" as="geometry">
            <mxPoint x="400" y="50" as="sourcePoint" />
            <mxPoint x="480" y="75" as="targetPoint" />
          </mxGeometry>
        </mxCell>
        <mxCell id="paLNZTY16HyD8g1cgg1j-90" value="&lt;span style=&quot;color: rgb(23, 43, 77); font-family: -apple-system, BlinkMacSystemFont, &amp;quot;Segoe UI&amp;quot;, Roboto, Oxygen, Ubuntu, &amp;quot;Fira Sans&amp;quot;, &amp;quot;Droid Sans&amp;quot;, &amp;quot;Helvetica Neue&amp;quot;, sans-serif; font-size: 14px; font-weight: 400; text-align: left; text-wrap-mode: wrap; background-color: rgb(255, 255, 255);&quot;&gt;region-prod-emea-02&lt;/span&gt;" style="swimlane;html=1;startSize=20;horizontal=0;" vertex="1" parent="paLNZTY16HyD8g1cgg1j-80">
          <mxGeometry x="20" y="120" width="890" height="120" as="geometry" />
        </mxCell>
        <mxCell id="paLNZTY16HyD8g1cgg1j-91" value="GWY" style="ellipse;whiteSpace=wrap;html=1;strokeWidth=2;fillWeight=2;hachureGap=8;fillColor=#990000;fillStyle=dots;sketch=1;" vertex="1" parent="paLNZTY16HyD8g1cgg1j-90">
          <mxGeometry x="45" y="30" width="60" height="60" as="geometry" />
        </mxCell>
        <mxCell id="paLNZTY16HyD8g1cgg1j-92" value="&lt;font color=&quot;#f40b0b&quot; style=&quot;font-size: 24px;&quot;&gt;OAM&lt;/font&gt;" style="ellipse;whiteSpace=wrap;html=1;strokeWidth=2;fillWeight=2;hachureGap=8;fillColor=#990000;fillStyle=dots;sketch=1;" vertex="1" parent="paLNZTY16HyD8g1cgg1j-90">
          <mxGeometry x="270" y="10" width="120" height="60" as="geometry" />
        </mxCell>
        <mxCell id="paLNZTY16HyD8g1cgg1j-93" value="CSP" style="ellipse;whiteSpace=wrap;html=1;strokeWidth=2;fillWeight=2;hachureGap=8;fillColor=#990000;fillStyle=dots;sketch=1;" vertex="1" parent="paLNZTY16HyD8g1cgg1j-90">
          <mxGeometry x="115" y="30" width="60" height="60" as="geometry" />
        </mxCell>
        <mxCell id="paLNZTY16HyD8g1cgg1j-94" value="CSP" style="ellipse;whiteSpace=wrap;html=1;strokeWidth=2;fillWeight=2;hachureGap=8;fillColor=#990000;fillStyle=dots;sketch=1;" vertex="1" parent="paLNZTY16HyD8g1cgg1j-90">
          <mxGeometry x="185" y="30" width="60" height="60" as="geometry" />
        </mxCell>
        <mxCell id="paLNZTY16HyD8g1cgg1j-95" value="JUMPHOST" style="rounded=1;whiteSpace=wrap;html=1;strokeWidth=2;fillWeight=4;hachureGap=8;hachureAngle=45;fillColor=#1ba1e2;sketch=1;" vertex="1" parent="paLNZTY16HyD8g1cgg1j-90">
          <mxGeometry x="274" y="80" width="100" height="35" as="geometry" />
        </mxCell>
        <mxCell id="paLNZTY16HyD8g1cgg1j-96" value="storage account&lt;div&gt;region-prod-emea-03&lt;/div&gt;&lt;div&gt;audit log&lt;/div&gt;" style="shape=ext;double=1;rounded=1;whiteSpace=wrap;html=1;" vertex="1" parent="paLNZTY16HyD8g1cgg1j-90">
          <mxGeometry x="470" y="20" width="120" height="80" as="geometry" />
        </mxCell>
        <mxCell id="paLNZTY16HyD8g1cgg1j-97" value="" style="edgeStyle=elbowEdgeStyle;elbow=horizontal;endArrow=classic;html=1;curved=0;rounded=0;endSize=8;startSize=8;exitX=1;exitY=0.5;exitDx=0;exitDy=0;" edge="1" parent="paLNZTY16HyD8g1cgg1j-90" source="paLNZTY16HyD8g1cgg1j-92" target="paLNZTY16HyD8g1cgg1j-96">
          <mxGeometry width="50" height="50" relative="1" as="geometry">
            <mxPoint x="410" y="-60" as="sourcePoint" />
            <mxPoint x="490" y="-35" as="targetPoint" />
          </mxGeometry>
        </mxCell>
        <mxCell id="paLNZTY16HyD8g1cgg1j-98" value="" style="edgeStyle=elbowEdgeStyle;elbow=horizontal;endArrow=classic;html=1;curved=0;rounded=0;endSize=8;startSize=8;exitX=1;exitY=0.5;exitDx=0;exitDy=0;entryX=0;entryY=0.5;entryDx=0;entryDy=0;" edge="1" parent="paLNZTY16HyD8g1cgg1j-90" source="paLNZTY16HyD8g1cgg1j-95" target="paLNZTY16HyD8g1cgg1j-96">
          <mxGeometry width="50" height="50" relative="1" as="geometry">
            <mxPoint x="400" y="50" as="sourcePoint" />
            <mxPoint x="480" y="70" as="targetPoint" />
          </mxGeometry>
        </mxCell>
        <mxCell id="paLNZTY16HyD8g1cgg1j-99" value="" style="edgeStyle=elbowEdgeStyle;elbow=horizontal;endArrow=classic;html=1;curved=0;rounded=0;endSize=8;startSize=8;exitX=1;exitY=0.5;exitDx=0;exitDy=0;" edge="1" parent="paLNZTY16HyD8g1cgg1j-90">
          <mxGeometry width="50" height="50" relative="1" as="geometry">
            <mxPoint x="590" y="59.66000000000008" as="sourcePoint" />
            <mxPoint x="640" y="59.66000000000008" as="targetPoint" />
          </mxGeometry>
        </mxCell>
        <mxCell id="paLNZTY16HyD8g1cgg1j-100" value="" style="edgeStyle=elbowEdgeStyle;elbow=horizontal;endArrow=classic;html=1;curved=0;rounded=0;endSize=8;startSize=8;exitX=1;exitY=0.5;exitDx=0;exitDy=0;entryX=0;entryY=0.5;entryDx=0;entryDy=0;" edge="1" parent="paLNZTY16HyD8g1cgg1j-90">
          <mxGeometry width="50" height="50" relative="1" as="geometry">
            <mxPoint x="700" y="59.66" as="sourcePoint" />
            <mxPoint x="750" y="59.66" as="targetPoint" />
          </mxGeometry>
        </mxCell>
        <mxCell id="paLNZTY16HyD8g1cgg1j-101" value="&lt;span style=&quot;color: rgb(23, 43, 77); font-family: -apple-system, BlinkMacSystemFont, &amp;quot;Segoe UI&amp;quot;, Roboto, Oxygen, Ubuntu, &amp;quot;Fira Sans&amp;quot;, &amp;quot;Droid Sans&amp;quot;, &amp;quot;Helvetica Neue&amp;quot;, sans-serif; font-size: 14px; font-weight: 400; text-align: left; text-wrap-mode: wrap; background-color: rgb(255, 255, 255);&quot;&gt;region-prod-emea-03&lt;/span&gt;" style="swimlane;html=1;startSize=20;horizontal=0;" vertex="1" parent="paLNZTY16HyD8g1cgg1j-80">
          <mxGeometry x="20" y="240" width="890" height="120" as="geometry" />
        </mxCell>
        <mxCell id="paLNZTY16HyD8g1cgg1j-102" value="GWY" style="ellipse;whiteSpace=wrap;html=1;strokeWidth=2;fillWeight=2;hachureGap=8;fillColor=#990000;fillStyle=dots;sketch=1;" vertex="1" parent="paLNZTY16HyD8g1cgg1j-101">
          <mxGeometry x="45" y="30" width="60" height="60" as="geometry" />
        </mxCell>
        <mxCell id="paLNZTY16HyD8g1cgg1j-103" value="&lt;font color=&quot;#f40b0b&quot; style=&quot;font-size: 24px;&quot;&gt;OAM&lt;/font&gt;" style="ellipse;whiteSpace=wrap;html=1;strokeWidth=2;fillWeight=2;hachureGap=8;fillColor=#990000;fillStyle=dots;sketch=1;" vertex="1" parent="paLNZTY16HyD8g1cgg1j-101">
          <mxGeometry x="270" y="10" width="120" height="60" as="geometry" />
        </mxCell>
        <mxCell id="paLNZTY16HyD8g1cgg1j-104" value="CSP" style="ellipse;whiteSpace=wrap;html=1;strokeWidth=2;fillWeight=2;hachureGap=8;fillColor=#990000;fillStyle=dots;sketch=1;" vertex="1" parent="paLNZTY16HyD8g1cgg1j-101">
          <mxGeometry x="115" y="30" width="60" height="60" as="geometry" />
        </mxCell>
        <mxCell id="paLNZTY16HyD8g1cgg1j-105" value="CSP" style="ellipse;whiteSpace=wrap;html=1;strokeWidth=2;fillWeight=2;hachureGap=8;fillColor=#990000;fillStyle=dots;sketch=1;" vertex="1" parent="paLNZTY16HyD8g1cgg1j-101">
          <mxGeometry x="185" y="30" width="60" height="60" as="geometry" />
        </mxCell>
        <mxCell id="paLNZTY16HyD8g1cgg1j-106" value="JUMPHOST" style="rounded=1;whiteSpace=wrap;html=1;strokeWidth=2;fillWeight=4;hachureGap=8;hachureAngle=45;fillColor=#1ba1e2;sketch=1;" vertex="1" parent="paLNZTY16HyD8g1cgg1j-101">
          <mxGeometry x="280" y="80" width="100" height="35" as="geometry" />
        </mxCell>
        <mxCell id="paLNZTY16HyD8g1cgg1j-107" value="" style="line;strokeWidth=2;direction=south;html=1;" vertex="1" parent="paLNZTY16HyD8g1cgg1j-101">
          <mxGeometry x="410" y="-640" width="10" height="760" as="geometry" />
        </mxCell>
        <mxCell id="paLNZTY16HyD8g1cgg1j-108" value="storage account&lt;div&gt;region-prod-emea-04&lt;/div&gt;&lt;div&gt;audit log&lt;/div&gt;" style="shape=ext;double=1;rounded=1;whiteSpace=wrap;html=1;" vertex="1" parent="paLNZTY16HyD8g1cgg1j-101">
          <mxGeometry x="470" y="20" width="120" height="80" as="geometry" />
        </mxCell>
        <mxCell id="paLNZTY16HyD8g1cgg1j-109" value="" style="edgeStyle=elbowEdgeStyle;elbow=horizontal;endArrow=classic;html=1;curved=0;rounded=0;endSize=8;startSize=8;exitX=1;exitY=0.5;exitDx=0;exitDy=0;entryX=0;entryY=0.5;entryDx=0;entryDy=0;" edge="1" parent="paLNZTY16HyD8g1cgg1j-101" source="paLNZTY16HyD8g1cgg1j-103" target="paLNZTY16HyD8g1cgg1j-108">
          <mxGeometry width="50" height="50" relative="1" as="geometry">
            <mxPoint x="410" y="-60" as="sourcePoint" />
            <mxPoint x="490" y="-40" as="targetPoint" />
          </mxGeometry>
        </mxCell>
        <mxCell id="paLNZTY16HyD8g1cgg1j-110" value="" style="edgeStyle=elbowEdgeStyle;elbow=horizontal;endArrow=classic;html=1;curved=0;rounded=0;endSize=8;startSize=8;exitX=1;exitY=0.5;exitDx=0;exitDy=0;entryX=0;entryY=0.5;entryDx=0;entryDy=0;" edge="1" parent="paLNZTY16HyD8g1cgg1j-101" source="paLNZTY16HyD8g1cgg1j-106" target="paLNZTY16HyD8g1cgg1j-108">
          <mxGeometry width="50" height="50" relative="1" as="geometry">
            <mxPoint x="400" y="50" as="sourcePoint" />
            <mxPoint x="480" y="70" as="targetPoint" />
          </mxGeometry>
        </mxCell>
        <mxCell id="paLNZTY16HyD8g1cgg1j-111" value="storage account&lt;div&gt;&lt;span style=&quot;font-weight: 700; text-wrap-mode: nowrap;&quot;&gt;Subscription:&amp;nbsp;&lt;br&gt;&lt;/span&gt;&lt;strong style=&quot;color: rgb(23, 43, 77); font-family: -apple-system, BlinkMacSystemFont, &amp;quot;Segoe UI&amp;quot;, Roboto, Oxygen, Ubuntu, &amp;quot;Fira Sans&amp;quot;, &amp;quot;Droid Sans&amp;quot;, &amp;quot;Helvetica Neue&amp;quot;, sans-serif; font-size: 14px; background-color: rgb(255, 255, 255);&quot;&gt;&lt;span class=&quot;ui-provider bkn bko bkp bkq bkr bks bkt bku bkv bkw bkx bky bkz bla blb blc bld ble blf blg blh bli blj blk bll blm bln blo blp blq blr bls blt blu blv&quot;&gt;AzureGnpEmeaProd01&lt;/span&gt;&lt;/strong&gt;&lt;/div&gt;&lt;div&gt;audit log&lt;/div&gt;" style="shape=ext;double=1;rounded=1;whiteSpace=wrap;html=1;" vertex="1" parent="paLNZTY16HyD8g1cgg1j-101">
          <mxGeometry x="750" y="-150" width="120" height="200" as="geometry" />
        </mxCell>
        <mxCell id="paLNZTY16HyD8g1cgg1j-112" value="Azure Function" style="icon;html=1;image=img/clipart/Gear_128x128.png" vertex="1" parent="paLNZTY16HyD8g1cgg1j-101">
          <mxGeometry x="640" y="-150" width="60" height="200" as="geometry" />
        </mxCell>
        <mxCell id="paLNZTY16HyD8g1cgg1j-117" value="" style="edgeStyle=elbowEdgeStyle;elbow=horizontal;endArrow=classic;html=1;curved=0;rounded=0;endSize=8;startSize=8;exitX=1;exitY=0.5;exitDx=0;exitDy=0;entryX=0.02;entryY=0.445;entryDx=0;entryDy=0;entryPerimeter=0;" edge="1" parent="paLNZTY16HyD8g1cgg1j-80" source="paLNZTY16HyD8g1cgg1j-87" target="paLNZTY16HyD8g1cgg1j-112">
          <mxGeometry width="50" height="50" relative="1" as="geometry">
            <mxPoint x="620" y="189.66000000000008" as="sourcePoint" />
            <mxPoint x="670" y="189.66000000000008" as="targetPoint" />
          </mxGeometry>
        </mxCell>
        <mxCell id="paLNZTY16HyD8g1cgg1j-114" value="" style="edgeStyle=elbowEdgeStyle;elbow=horizontal;endArrow=classic;html=1;curved=0;rounded=0;endSize=8;startSize=8;exitX=1;exitY=0.5;exitDx=0;exitDy=0;" edge="1" parent="1" source="paLNZTY16HyD8g1cgg1j-42">
          <mxGeometry width="50" height="50" relative="1" as="geometry">
            <mxPoint x="740" y="190" as="sourcePoint" />
            <mxPoint x="780" y="310" as="targetPoint" />
          </mxGeometry>
        </mxCell>
        <mxCell id="paLNZTY16HyD8g1cgg1j-116" value="" style="edgeStyle=elbowEdgeStyle;elbow=horizontal;endArrow=classic;html=1;curved=0;rounded=0;endSize=8;startSize=8;exitX=1;exitY=0.5;exitDx=0;exitDy=0;" edge="1" parent="1" source="paLNZTY16HyD8g1cgg1j-45">
          <mxGeometry width="50" height="50" relative="1" as="geometry">
            <mxPoint x="740" y="595" as="sourcePoint" />
            <mxPoint x="780" y="700" as="targetPoint" />
          </mxGeometry>
        </mxCell>
        <mxCell id="paLNZTY16HyD8g1cgg1j-118" value="" style="edgeStyle=elbowEdgeStyle;elbow=horizontal;endArrow=classic;html=1;curved=0;rounded=0;endSize=8;startSize=8;exitX=1;exitY=0.5;exitDx=0;exitDy=0;" edge="1" parent="1" source="paLNZTY16HyD8g1cgg1j-108">
          <mxGeometry width="50" height="50" relative="1" as="geometry">
            <mxPoint x="740" y="975" as="sourcePoint" />
            <mxPoint x="780" y="1080" as="targetPoint" />
          </mxGeometry>
        </mxCell>
        <mxCell id="paLNZTY16HyD8g1cgg1j-119" value="Subscription:&amp;nbsp;&lt;strong style=&quot;color: rgb(23, 43, 77); font-family: -apple-system, BlinkMacSystemFont, &amp;quot;Segoe UI&amp;quot;, Roboto, Oxygen, Ubuntu, &amp;quot;Fira Sans&amp;quot;, &amp;quot;Droid Sans&amp;quot;, &amp;quot;Helvetica Neue&amp;quot;, sans-serif; font-size: 14px; text-wrap-mode: wrap; background-color: rgb(255, 255, 255);&quot;&gt;&lt;span class=&quot;ui-provider bkn bko bkp bkq bkr bks bkt bku bkv bkw bkx bky bkz bla blb blc bld ble blf blg blh bli blj blk bll blm bln blo blp blq blr bls blt blu blv&quot;&gt;AzureGnpAuditLogsExtTest01&lt;/span&gt;&lt;/strong&gt;" style="swimlane;html=1;childLayout=stackLayout;resizeParent=1;resizeParentMax=0;horizontal=0;startSize=20;horizontalStack=0;fillColor=#d80073;strokeColor=#A50040;fontColor=#ffffff;" vertex="1" parent="1">
          <mxGeometry x="1320" y="370" width="480" height="320" as="geometry" />
        </mxCell>
        <mxCell id="paLNZTY16HyD8g1cgg1j-120" value="" style="swimlane;html=1;startSize=20;horizontal=0;" vertex="1" parent="paLNZTY16HyD8g1cgg1j-119">
          <mxGeometry x="20" width="460" height="320" as="geometry" />
        </mxCell>
        <mxCell id="paLNZTY16HyD8g1cgg1j-126" value="storage account&lt;div&gt;region-prod-emea-02&lt;/div&gt;&lt;div&gt;audit log&lt;/div&gt;" style="shape=ext;double=1;rounded=1;whiteSpace=wrap;html=1;" vertex="1" parent="paLNZTY16HyD8g1cgg1j-120">
          <mxGeometry x="300" y="100" width="120" height="80" as="geometry" />
        </mxCell>
        <mxCell id="paLNZTY16HyD8g1cgg1j-154" value="Azure Data Factory" style="icon;html=1;image=img/clipart/Gear_128x128.png" vertex="1" parent="paLNZTY16HyD8g1cgg1j-120">
          <mxGeometry x="60" y="50" width="110" height="100" as="geometry" />
        </mxCell>
        <mxCell id="paLNZTY16HyD8g1cgg1j-152" value="" style="edgeStyle=elbowEdgeStyle;elbow=horizontal;endArrow=classic;html=1;curved=0;rounded=0;endSize=8;startSize=8;exitX=1.018;exitY=0.572;exitDx=0;exitDy=0;entryX=0;entryY=0.5;entryDx=0;entryDy=0;exitPerimeter=0;" edge="1" parent="paLNZTY16HyD8g1cgg1j-120" source="paLNZTY16HyD8g1cgg1j-154" target="paLNZTY16HyD8g1cgg1j-126">
          <mxGeometry width="50" height="50" relative="1" as="geometry">
            <mxPoint x="600" y="189.66000000000008" as="sourcePoint" />
            <mxPoint x="641.2000000000003" y="179.00000000000045" as="targetPoint" />
          </mxGeometry>
        </mxCell>
        <mxCell id="paLNZTY16HyD8g1cgg1j-155" value="Subscription:&amp;nbsp;&lt;strong style=&quot;color: rgb(23, 43, 77); font-family: -apple-system, BlinkMacSystemFont, &amp;quot;Segoe UI&amp;quot;, Roboto, Oxygen, Ubuntu, &amp;quot;Fira Sans&amp;quot;, &amp;quot;Droid Sans&amp;quot;, &amp;quot;Helvetica Neue&amp;quot;, sans-serif; font-size: 14px; text-wrap-mode: wrap; background-color: rgb(255, 255, 255);&quot;&gt;&lt;span class=&quot;ui-provider bkn bko bkp bkq bkr bks bkt bku bkv bkw bkx bky bkz bla blb blc bld ble blf blg blh bli blj blk bll blm bln blo blp blq blr bls blt blu blv&quot;&gt;AzureGnpAuditLogsExtProd01&lt;/span&gt;&lt;/strong&gt;" style="swimlane;html=1;childLayout=stackLayout;resizeParent=1;resizeParentMax=0;horizontal=0;startSize=20;horizontalStack=0;fillColor=#d80073;strokeColor=#A50040;fontColor=#ffffff;" vertex="1" parent="1">
          <mxGeometry x="1320" y="930" width="480" height="320" as="geometry" />
        </mxCell>
        <mxCell id="paLNZTY16HyD8g1cgg1j-156" value="" style="swimlane;html=1;startSize=20;horizontal=0;" vertex="1" parent="paLNZTY16HyD8g1cgg1j-155">
          <mxGeometry x="20" width="460" height="320" as="geometry" />
        </mxCell>
        <mxCell id="paLNZTY16HyD8g1cgg1j-157" value="storage account&lt;div&gt;region-prod-emea-02&lt;/div&gt;&lt;div&gt;audit log&lt;/div&gt;" style="shape=ext;double=1;rounded=1;whiteSpace=wrap;html=1;" vertex="1" parent="paLNZTY16HyD8g1cgg1j-156">
          <mxGeometry x="300" y="110" width="120" height="80" as="geometry" />
        </mxCell>
        <mxCell id="paLNZTY16HyD8g1cgg1j-158" value="Azure Data Factory" style="icon;html=1;image=img/clipart/Gear_128x128.png" vertex="1" parent="paLNZTY16HyD8g1cgg1j-156">
          <mxGeometry x="60" y="50" width="110" height="100" as="geometry" />
        </mxCell>
        <mxCell id="paLNZTY16HyD8g1cgg1j-159" value="" style="edgeStyle=elbowEdgeStyle;elbow=horizontal;endArrow=classic;html=1;curved=0;rounded=0;endSize=8;startSize=8;exitX=1.018;exitY=0.572;exitDx=0;exitDy=0;entryX=0;entryY=0.5;entryDx=0;entryDy=0;exitPerimeter=0;" edge="1" parent="paLNZTY16HyD8g1cgg1j-156" source="paLNZTY16HyD8g1cgg1j-158" target="paLNZTY16HyD8g1cgg1j-157">
          <mxGeometry width="50" height="50" relative="1" as="geometry">
            <mxPoint x="600" y="189.66000000000008" as="sourcePoint" />
            <mxPoint x="641.2000000000003" y="179.00000000000045" as="targetPoint" />
          </mxGeometry>
        </mxCell>
        <mxCell id="paLNZTY16HyD8g1cgg1j-160" value="" style="edgeStyle=elbowEdgeStyle;elbow=horizontal;endArrow=classic;html=1;curved=0;rounded=0;endSize=8;startSize=8;exitX=0.985;exitY=0.539;exitDx=0;exitDy=0;exitPerimeter=0;entryX=0;entryY=0.5;entryDx=0;entryDy=0;" edge="1" parent="1" source="paLNZTY16HyD8g1cgg1j-69" target="paLNZTY16HyD8g1cgg1j-154">
          <mxGeometry width="50" height="50" relative="1" as="geometry">
            <mxPoint x="1502" y="397" as="sourcePoint" />
            <mxPoint x="1210" y="580" as="targetPoint" />
            <Array as="points">
              <mxPoint x="1190" y="410" />
            </Array>
          </mxGeometry>
        </mxCell>
        <mxCell id="paLNZTY16HyD8g1cgg1j-161" value="" style="edgeStyle=elbowEdgeStyle;elbow=horizontal;endArrow=classic;html=1;curved=0;rounded=0;endSize=8;startSize=8;exitX=1;exitY=0.5;exitDx=0;exitDy=0;entryX=0;entryY=0.5;entryDx=0;entryDy=0;" edge="1" parent="1" source="paLNZTY16HyD8g1cgg1j-70" target="paLNZTY16HyD8g1cgg1j-154">
          <mxGeometry width="50" height="50" relative="1" as="geometry">
            <mxPoint x="1018" y="348" as="sourcePoint" />
            <mxPoint x="1390" y="470" as="targetPoint" />
            <Array as="points">
              <mxPoint x="1190" y="550" />
            </Array>
          </mxGeometry>
        </mxCell>
        <mxCell id="paLNZTY16HyD8g1cgg1j-162" value="" style="edgeStyle=elbowEdgeStyle;elbow=horizontal;endArrow=classic;html=1;curved=0;rounded=0;endSize=8;startSize=8;exitX=1;exitY=0.5;exitDx=0;exitDy=0;entryX=0;entryY=0.5;entryDx=0;entryDy=0;" edge="1" parent="1" source="paLNZTY16HyD8g1cgg1j-111" target="paLNZTY16HyD8g1cgg1j-155">
          <mxGeometry width="50" height="50" relative="1" as="geometry">
            <mxPoint x="1030" y="1100" as="sourcePoint" />
            <mxPoint x="1230" y="960" as="targetPoint" />
            <Array as="points">
              <mxPoint x="1170" y="1020" />
            </Array>
          </mxGeometry>
        </mxCell>
      </root>
    </mxGraphModel>
  </diagram>
</mxfile>
